<?xml version="1.0" encoding="UTF-8"?><svg id="Layer_2" xmlns="http://www.w3.org/2000/svg" viewBox="0 0 336.762 657.653"><defs><style>.cls-1{fill:#f5f0e8;}</style></defs><g id="Layer_1-2"><path class="cls-1" d="M.022,295.144c.432,10.235,11.492,22.252,19.058,28.487.043-10.336-11.755-17.365-13.01-27.472-2.052-16.524,12.222-28.853,10.894-44.91-.418-5.059-2.579-10.748-2.912-16.08-2.486-39.693,28.939-42.82,37.547-72.53,5.792-19.99,3.807-38.113,23.572-50.428,20.769-12.942,32.62-11.371,48.148-33.852,20.38-29.509,25.152-51.041,62.506-65.494,49.47-19.141,87.548-.651,118.238,38.294,11.016,13.979,33.159,45.521,12.361,59.305-9.489,6.289-42.675,11.96-54.838,13.162-19.675,1.944-58.646-2.183-71.323,14.677-10.105,13.44-15.973,35.531-31.837,45.163-11.009,6.684-40.763,9.659-53.845,9.165-1.207-.046-3.721.751-3.483-.988,18.723-4.595,38.144-6.409,49.161-24.344,9.465-15.408,23.824-57.794,43.419-60.582,10.836-1.542,22.378,2.601,33.037,3.788,20.835,2.32,49.935-1.103,69.356-9.394,10.081-4.304,19.408-11.173,15.524-23.476-4.257,11.076-11.344,15.824-21.99,20.01-18.391,7.233-39.406,9.865-59.002,7.972-28.368-2.74-42.696-13.337-61.922,15.104-15.666,23.175-15.392,49.791-45.827,60.173-18.777,6.405-35.53,7.466-53.43,17.57-32.176,18.161-38.613,80.594-40.293,113.707-2.368,46.703-1.911,99.407,2.969,145.949,2.716,25.906,7.545,55.637,30.909,71.11-6.834,14.357-12.814,29.159-17.415,44.403-5.893,19.525-11.127,43.098-11.489,63.503-.036,2,.399,13.873,1.014,14.478.283.279,2.988-.147,3.967.02-.223-31.189,5.689-61.273,15.986-90.524,3.385-9.616,8.048-18.728,11.027-28.481,1.546-.423,1.669.44,2.495.997,13.444,9.059,26.485,20.553,40.18,29.82,42.105,28.488,89.838,47.29,131.635,75.365,8.533,5.731,5.17,9.32,5.685,18.822,1.09-.887,3.858.17,3.959,0,2.057-3.481-.239-10.607.052-12.483.333-2.156,3.71-.493,5.424-.462,26.033.467,36.182.074,54.586-19.534,3.998-4.26,19.12-27.388,18.814-31.802-.329-4.73-6.895-2.508-5.825-5.204.816-2.058,3.536-5.094,4.75-8.255,14.453-37.636,10.609-72.349-6.383-108.142-8.131-17.126-20.363-31.99-32.216-46.611,2.698-3.551,5.396-8.657,5.755-13.146,1.553-19.428-25.631-46.432-45.918-43.374,9.583-20.936.67-43.678-13.486-60.004-17.594-20.292-39.608-38.901-57.026-59.973-15.882-19.213.766-29.896,9.53-47.007,1.962-1.35,6.639,6.15,7.956,7.521,12.563,13.087,25.392,17.92,41.962,6.909,4.225-2.807,7.914-9.227,9.657-10.343,4.852-3.108,14.138.429,12.411-10.099,5.522-.526,10.556,5.106,16.002,2.503,3.208-1.533,4.147-13.608,5.28-17.712,4.352-15.765,4.795-14.875,16.233-24.767,4.462-3.859,13.13-26.753,15.569-33.528.57-1.583.181-4.095.458-4.528.534-.833,10.322-6.208,13.45-10.467,10.219-13.915-4.889-40.34-13.581-52.408C281.537,10.338,239.823-13.08,184.567,7.608c-40.283,15.082-44.779,37.788-66.667,69.333-12.807,18.458-27.339,19.097-45.115,29.885-30.412,18.455-16.745,50.344-35.299,70.701-14.017,15.38-24.653,20.425-28.125,43.876-1.992,13.455,1.683,18.207,2.606,29.849,1.146,14.461-12.594,28.497-11.944,43.892ZM261.092,375.13c12.759,3.734,31.669,24.772,28.769,38.78-.311,1.504-3.158,7.213-4.439,7.623-1.276.408-17.388-5.003-21.087-5.646-5.081-.882-10.544-.748-15.624-1.375-1.456-.18-6.083-.511-6.62-1.881h19.5c.854,0,3.834-2.366,5.498-2.012-.085-1.259-3.922-2.988-4.498-2.988h-38.5c-.352-2.185,1.384-2.8,3.001-3.499,9.238-3.994,23.312-4.411,32.996-8.513-.377-1.824-1.964-1.848-3.457-2.02-12.51-1.449-29.02,8.101-42.54,5.022.25-1.553,1.866-1.879,3.02-2.471,10.833-5.556,24.282-6.837,34.975-13.014-1.13-1.564-2.759-1.599-4.486-1.596-6.646.011-38.12,13.478-40.51,11.086-3.851-3.854,13.857-12.66,16.643-13.852,11.263-4.817,25.472-7.123,37.359-3.645ZM245.37,333.852c2.803,8.714,4.611,24.101-.414,32.145-2.769,4.433-7.888,3.403-12.289,4.711-8.135,2.417-30.267,10.493-30.651,20.451-.281,7.295,6.599,4.828,7.886,6.674.782,1.122-.435,3.846,2.209,5.282,1.492.81,7.725,1.214,7.99,1.522.337.391-.958,2.31-.781,3.362.951,5.633,13.779,3.659,17.16,4.566,1.102.296-.261,3.673,4.938,5.24,20.11,6.06,33.387-.864,50.185,17.815,32.982,36.677,53.797,99.568,30.03,146.054-.73,1.429-4.352,7.37-5.257,8.001-5.87,4.088-28.673-.731-37.824-.082-5.138.364-10.369,2.45-15.062,2.929-15.221,1.552-35.342-15.734-46.413-25.376-24.834-21.629-47.915-45.531-71.46-68.54-8.558-8.363-25.469-21.257-31.939-30.061-4.93-6.708-3.975-13.21-3.577-21.403,2.632-54.17,19.355-110.573,27.948-164.158.35-1.567-1.223-3.854-2.473-4.342-2.134-.832-1.438,2.008-1.754,3.21-6.078,23.129-8.683,44.811-13.021,67.989-7.183,38.38-17.293,76.514-15.508,116.089,12.714,16.507,29.379,29.34,44.325,43.675,23.913,22.935,69.484,72.951,97.96,85.04,14.214,6.035,17.874.91,30.979-.05,15.519-1.136,30.244,5.748,45.529-1.96,1.185,1.233-5.617,13.612-7.604,14.886-5.016,3.216-17.539,5.084-23.39,3.12,1.286,2.758,4.64,4.745,7.62,4.948,4.294.292,8.256-2.306,12.373-2.464-10.9,15-24.816,27.918-44.539,27.543-3.779-.072-11.178-.625-14.867-1.124-7.117-.962-36.963-21.069-45.915-26.085-34.583-19.38-68.048-35.352-100.988-58.012-14.939-10.277-47.35-31.666-55.855-46.145-17.623-29.998-15.797-80.752-16.787-115.213-1.335-46.463-5.121-142.167,25.446-179.471,14.337-17.497,43.273-24.411,61.159-8.634,9.75,8.601,18.408,24.108,27.381,34.119,14.66,16.357,33.739,24.047,49.985,38.015,12.099,10.402,42.711,41.563,47.268,55.732ZM308.607,121.648c-2.975,8.234-9.911,25.488-16.041,30.959-1.93,1.722-4.643,2.685-6.511,4.489-7.812,7.545-9.168,26.068-12.197,36.299-3.028,2.058-5.894-1.317-9.377-1.71-3.487-.394-6.766,1.205-10.39-.043,6.327,11.538-4.812,6.362-10.335,9.909-1.46.938-2.151,6.072-5.391,6.932-3.486.926-8.524-3.23-12.274-2.841l7.992,6.971c-13.769,7.363-23.575,6.041-33.962-5.511l-13.019-18.464c-4.49,19.626-29.491,37.057-15.831,58.314l12.31,14.69c-11.872-8.072-23.311-16.334-33.004-26.995-10.859-11.943-19.531-29.177-34.484-36.026,2.109-2.751,7.992-1.635,11.369-2.121,24.313-3.496,34.989-4.413,49.856-25.14,16.91-23.574,10.83-36.781,45.281-40.719,16.247-1.857,32.24-.864,48.849-3.151,12.386-1.706,25.491-4.318,37.154-8.846,1.17.352.311,2.161.006,3.006Z"/><path class="cls-1" d="M278.07,162.131l-14.97-7.5c.401,6.966,9.257,12.828,14.97,7.5Z"/></g></svg>