<?xml version="1.0" encoding="UTF-8"?><svg id="Layer_2" xmlns="http://www.w3.org/2000/svg" viewBox="0 0 502.13 554.066"><defs><style>.cls-1{fill:#f5f0e8;}</style></defs><g id="Layer_2-2"><path class="cls-1" d="M353.684,269.24c-48.862,4.659-87.809,47.742-83.606,97.363,1.432,16.908,10.339,25.953,16.841,40.159,3.765,8.225,6.064,17.211,10.139,25.351-14.221-1.721-30.13-13.503-43.034-.533-14.104,14.175,6.102,16.122,12.032,24.046,3.311,4.424,3.594,9.515,5.825,14.175,5.979,12.488,14.662,12.32,22.694,21.306,6.537,7.314,11.593,17.127,18.461,24.539,20.813,22.46,51.118,26.609,75.923,7.87,4.175-3.154,10.291-7.193,11.103-12.387-1.35-.956-16.785,12.146-19.699,13.791-22.727,12.825-47.691,5.117-64.273-13.327-6.611-7.353-12.026-17.304-18.516-24.484-5.524-6.111-13.246-7.96-18.034-13.966-7.307-9.166-4.824-18.142-16.158-25.842-2.423-1.646-11.461-4.022-8.87-8.211,3.204-5.18,23.539,1.874,23.53-2.47-.006-2.936-16.266-4.097-18.975-3.51.282-1.49,4.574-2.592,5.733-2.753,13.155-1.829,15.186,4.056,25.001,5.52,3.052.455,9.248-.939,10.244-.308.6.38,8.882,9.697,9.48,10.587,1.039,1.545,1.555,3.096,1.548,4.959,1.679.455.592-1.359,1.115-1.807.812-.696,15.15,5.797,18.823,6.365,10.684,1.652,20.691-.333,30.042-5.551-2.385,9.218-2.131,18.522-1.995,27.994l-10.679-8.81c-8.845-6.451-23.931-14.326-34.927-15.084-4.799-.331-1.982,2.15.605,3.406,15.231,7.395,32.017,11.322,43.438,25.561.68.847,4.039,8.844,5.568,6.932v-28.5c0-17.304,23.361-48.312,38.081-56.919,6.07-3.549,10.703-3.928,16.721-6.327,1.521-.606,2.703.581,2.193-2.249-22.324-2.118-36.953,17.823-48.81,33.679-3.748,5.011-6.669,12.783-11.848,16.152-23.043,14.989-51.823-.882-62.193-23.479-2.073-4.518-3.01-9.479-4.963-14.037-1.545-3.605-7.788-13.405-8.198-15.816-.354-2.081,4.203-2.523,5.443-2.443,13.299.862,10.383,23.257,24.953,21.892,2.795-.262,8.698-2.4,8.617-5.947-3.792-1-7.564,2.565-11.015,1.595-6.368-1.789-7.804-15.436-14.812-19.269-6.277-3.433-14.289-.203-16.681-2.325-4.905-4.353-7.073-26.895-6.471-33.49,4.662-51.028,53.715-85.814,103.349-78.381,43.188,6.468,72.456,50.562,59.146,92.876-1.346,4.28-3.027,7.757-5.508,11.472,2.442,3.704,3.895-1.703,5.504.509,8.393,23.599,5.417,49.453-.791,73.224-6.781,25.961-14.144,60.877-32.204,80.796-3.05,3.364-18.462,14.281-18.493,15.487-.008.302,2.239,2.604,3.339,2.415.811-.139,11.629-8.641,13.113-9.944,9.996-8.775,17.31-20.06,23.012-31.988,8.611-38.297,29.936-81.155,19.007-120.972-.897-3.268-5.421-12.007-5.417-13.511.005-1.634,2.776-6.934,3.42-9.507,14.172-56.647-31.911-101.207-87.871-95.871Z"/><path class="cls-1" d="M416.577,371.133c-1.504,2.006-8.893.923-10.494,4.486,1.178,4.762,12.725-.161,14.072-1.908.549-.712,3.608-12.51,3.796-14.197.865-7.754-2.782-22.738-9.387-27.396-9.936-7.006-25.797,4.593-24.491,16.001,6.045-7.304,16.054-22.188,24.519-9.029,3.55,5.519,6.23,13.857,5.381,20.448-.158,1.225-3.033,11.112-3.396,11.596Z"/><path class="cls-1" d="M311.068,433.114c2.195,2.117,22.676-12.199,26.993-13.009.397-.573-1.277-1.956-2.452-1.979-1.801-.036-20.772,9.495-22.91,11.129-1.213.927-2.648,2.878-1.631,3.859Z"/><path class="cls-1" d="M12.058,411.114c-4.083-12.612-8.92-22.225-5.317-35.818,2.28-8.601,8.899-17.009,11.375-25.625,4.546-15.822-2.928-28.005-.793-43.793,3.209-23.731,27.974-35.286,32.488-55.512,2.386-10.691-.771-20.612.533-31.467,3.922-32.651,47.239-61.384,64.947-88.054,10.405-15.672,17.159-38.345,26.603-55.397C179.272,7.949,256.34-16.252,322.979,26.703c20.928,13.49,60.718,53.003,68.544,76.456,11.112,33.302-6.559,60.915-4.449,93.449,1.335,20.592,12.391,43.843,12.885,62.122.096,3.545-3.245,12.452,1.619,14.379,1.42.562,2.379-1.773,2.485-2.49.794-5.386,0-14.135,0-20,0-12.028-10.966-37.443-12.041-53.959-2.038-31.311,13.794-57.348,5.966-89.966-6.891-28.711-52.414-73.451-77.62-88.38-67.595-40.035-146.138-11.201-182.478,55.133-9.398,17.155-16.891,39.724-27.393,55.607-19.574,29.605-64.815,56.071-65.495,95.53-.094,5.47,1.396,10.23,1.04,16.023-1.529,24.87-25.704,35.551-32.482,59.51-3.806,13.456.277,20.34,1.378,32.622C16.767,353.108.011,365.321,0,385.619c-.004,8.252,3.382,22.363,12.058,25.495Z"/><path class="cls-1" d="M337.063,366.129l-5.817.674-8.177,4.305c5.016,1.598,11.078-.681,13.994-4.979Z"/><path class="cls-1" d="M311.059,175.603c1.248-6.016-29.641-16.363-34.995-17.474,7.566,9.933,21.659,12.3,31.957,18.556,1.069.945,2.864-.241,3.038-1.082Z"/><path class="cls-1" d="M92.476,292.032c13.229-20.548,5.13-47.032,27.112-63.888,6.337-4.859,14.526-6.128,21.388-10.612,35.602-23.266,16.255-61.07,43.075-83.925,22.197-18.916,46.911-10.562,73.384-12.616,25.406-1.971,64.643-13.394,81.14-33.86,4.198-5.208,11.269-15.767,4.499-21.01-6.029,27.253-36.473,39.759-60.997,45.512-7.064,1.657-16.442,3.928-23.53,4.47-22.335,1.709-46.711-4.445-67.155,6.845-38.226,21.109-19.65,52.019-41.5,79.5-14.163,17.814-34.209,14.532-45.004,35.996-12.215,24.287-3.675,41.403-28.354,62.646-7.179,6.179-33.056,20.348-35.712,26.287-.687,1.536-.914,3.079-.747,4.743,15.744-12.609,41.31-22.858,52.403-40.087Z"/><path class="cls-1" d="M155.252,457.251c-.719,1.014,4.672,8.443,5.691,10.488,14.233,28.582,27.235,57.81,41.605,86.327,1.802-1.112,4.075-1.656,3.377-4.213-5.773-12.31-11.172-24.814-17.003-37.093-7.681-16.172-16.969-36.923-26.056-51.944-2.078-3.435-4.669-6.672-7.307-9.693-1.519,1.527,1.309,4.316,1.511,5.535.075.451-1.666.378-1.818.592Z"/><path class="cls-1" d="M478.535,384.147c-7.493-14.343-11.62-33.601-28.463-40.027.648,8.776.674,17.915,2.649,26.841,3.175,14.344,12.815,28.043,14.22,42.78.513,5.386-.914,9.546-.878,13.879.031,3.658,1.948,8.344,1.01,12.495l3.714-9.77c5.484-20.856-7.168-38.252-12.44-57.009-1.966-6.995-2.704-14.152-4.284-21.205,1.76-.368,2.471.897,3.514,1.976,9.1,9.412,26.924,53.328,29.23,66.77,1.658,9.663.803,19.572,2.26,29.246,2.622.779,2.84-2.637,3-4.491.639-7.428-.393-14.745-.995-22.029-.09-1.093-.73-3.731.978-3.475,11.907,30.19,4.345,72.999-12.164,100.316-2.589,4.283-21.1,26.12-20.373,27.688,1.788,3.859,4.21.908,6.062-1.003,31.521-32.516,45.998-88.051,29.972-130.993-4.407-11.81-11.321-21.092-17.013-31.987Z"/><path class="cls-1" d="M268.036,185.596c-.738-.776-.864-2.359-.993-2.469-2.47-2.119-2.431,3.825-1.462,5.975,3.547,7.873,29.878,19.455,37.477,10.512-2.958-2.579-6.855-.347-9.385-.595-10.73-1.053-18.393-5.81-25.637-13.423Z"/><path class="cls-1" d="M269.966,312.522c5.177-2.539,26.17-23.059,31.609-28.435,14.46-14.293,45.092-45.505,47.38-65.575,1.323-11.6-2.288-15.21,6.585-25.415,4.891-5.625,7.704-6.977,11.008-14.992,12.118-29.395,11.456-71.454-13.476-93.986.003,5.001-4.018,11.54-7.521,14.989-13.652,13.445-64.929,31.799-84.494,37.506-16.63,4.851-34.246,5.978-51.03,9.97-33.56,7.983-23.896,39.333-35.482,65.518-4.468,10.098-12.604,16.44-17.039,24.961-3.225,6.197-4.244,14.369-6.962,21.038-15.314,37.578-61.906,51.001-92.615,71.385-55.167,36.621-42.127,124.456-22.886,178.149,1.926,5.375,17.065,43.824,19.462,44.158.764.107,2.394-1.01,3.559-.683-6.969-20.668-17.039-40.263-23.27-61.225-8.927-30.035-14.316-71.134-8.438-101.973,13.317-69.864,82.503-63.163,119.705-111.295,9.526-12.324,8.674-24.226,14.439-35.561,2.644-5.198,9.27-10.872,12.787-16.213,6.232-9.462,9.626-20.896,12.099-31.9,4.07-18.11.956-34.741,22.896-41.104,15.078-4.373,33.186-5.036,48.789-9.211,20.516-5.489,78.134-25.78,92.037-39.963,1.006-1.026,6.27-9.007,6.941-8.544,18.523,26.503,15.975,60.61,2.919,88.924-13.617-4.609-26.749-3.899-31.957,11.518-3.147,9.315-7.09,18.228-9.46,28.545-1.022,4.449-2.298,20.127-4.899,22.1-6.969,5.286-23.734-7.966-28.581-13.089-2.52,8.223,13.379,16.666,19.726,17.759,16.87,2.905,14.055-7.935,16.521-19.002,1.839-8.254,4.325-16.403,5.756-24.755,6.22,2.884,12.394,2.381,18.982,1.003.399,28.639-24.884,50.281-42.976,69.53-11.303-4.069-23.23-6.394-34.538-10.514-3.184-1.16-7.396-5.374-9.456-2.526-.24,5.977,24.81,12.702,29.967,14.015,3.577.911,7.284,1.646,11.009,1.501-8.659,8.09-26.051,30.494-37.767,31.802-9.406,1.05-33.094-15.571-40.702-21.842-13.715-11.304-25.801-26.722-31.042-43.959-1.972-6.486-2.237-13.747-4.218-19.83-.548-1.683.452-2.629-2.271-2.182v14.5c0,3.75,4.986,17.134,6.829,21.171,8.176,17.904,24.554,32.63,40.721,43.296-4.515,13.368-11.686,24.219-7.847,38.829,2.561,9.747,9.684,18.875,17.287,25.203-2.504-11.03-12.834-18.848-13.992-30.49-.974-9.793,4.242-22.4,9.5-30.492,10.353,6.729,22.143,13.398,34.405,7.385ZM333.067,191.624c6.14-8.65,12.869-5.972,21.993-5.5-.026,7.504-6.063,3.947-10.995,3.992l.005,5,5.003-.487c-2.785,13.888-27.39,13.036-16.005-3.004Z"/><path class="cls-1" d="M244.063,445.109c-1.021-1.296-.632-3.966-1.197-4.782-.504-.729-13.321-5.769-16.109-7.402-22.189-13-44.785-38.069-65.219-54.781-23.25-19.015-51.302-38.018-82.47-38.019-.46,2.701.491,1.729,2.175,2.267,19.444,6.213,34.929,10.064,52.735,21.312,28.986,18.311,53.099,47.582,80.769,67.231,8.541,6.065,18.999,12.431,29.315,14.175Z"/></g></svg>